<svg width="64" height="22" viewBox="0 0 64 22" fill="none" xmlns="http://www.w3.org/2000/svg">
<g id="Visa Inc. svg" clip-path="url(#clip0_269_1828)">
<path id="path3789" d="M41.6988 0C37.1605 0 33.0858 2.40248 33.0858 6.81115C33.0858 11.8885 40.2836 12.2353 40.2836 14.7616C40.2836 15.8266 39.0637 16.7926 37.0141 16.7926C34.0862 16.7926 31.8902 15.4551 31.8902 15.4551L30.963 19.9133C30.963 19.9133 33.4762 21.0526 36.8433 21.0526C41.8208 21.0526 45.7247 18.5511 45.7247 14.0433C45.7247 8.6935 38.5025 8.34675 38.5025 5.99381C38.5025 5.1517 39.5029 4.23529 41.5524 4.23529C43.8704 4.23529 45.7735 5.20124 45.7735 5.20124L46.7007 0.891641C46.6763 0.891641 44.6024 0 41.6988 0ZM0.121998 0.321981L0 0.965944C0 0.965944 1.90316 1.31269 3.63553 2.03096C5.85589 2.8483 6.00229 3.31889 6.39268 4.78019L10.4674 20.7059H15.9329L24.3019 0.321981H18.8608L13.4685 14.1919L11.2726 2.42724C11.0774 1.08978 10.0526 0.321981 8.78384 0.321981H0.121998ZM26.4979 0.321981L22.228 20.7059H27.4251L31.6706 0.321981H26.4979ZM55.4358 0.321981C54.1914 0.321981 53.5326 0.990712 53.0446 2.17957L45.4319 20.7059H50.8731L51.9222 17.6099H58.5589L59.1933 20.7059H64L59.8277 0.321981H55.4358ZM56.1434 5.8452L57.7537 13.4985H53.435L56.1434 5.8452Z" fill="#1434CB"/>
</g>
<defs>
<clipPath id="clip0_269_1828">
<rect width="64" height="21.0526" fill="white" transform="translate(0 0.125427)"/>
</clipPath>
</defs>
</svg>
